<?xml version="1.0" encoding="UTF-8" standalone="no"?>
<!DOCTYPE svg PUBLIC "-//W3C//DTD SVG 1.1//EN" "http://www.w3.org/Graphics/SVG/1.1/DTD/svg11.dtd">
<svg width="100%" height="100%" viewBox="0 0 3300 3300" version="1.1" xmlns="http://www.w3.org/2000/svg" xmlns:xlink="http://www.w3.org/1999/xlink" xml:space="preserve" xmlns:serif="http://www.serif.com/" style="fill-rule:evenodd;clip-rule:evenodd;stroke-linejoin:round;stroke-miterlimit:2;">
    <g id="Artboard1" transform="matrix(1,0,0,1,0,-873)">
        <rect x="0" y="873" width="3300" height="3300" style="fill:none;"/>
        <g transform="matrix(1,0,0,1,0,873)">
            <circle cx="1650" cy="1650" r="1650"/>
        </g>
        <g transform="matrix(0.982613,0,0,0.982613,-123.126,-272.043)">
            <path d="M3220.57,3245.64C3045.76,3863.08 2477.61,4316 1804.5,4316C992.357,4316 333,3656.64 333,2844.5C333,2032.36 992.357,1373 1804.5,1373C2423.95,1373 2954.52,1756.59 3171.41,2298.99L2742.47,2298.99C2554.32,1976.41 2204.55,1759.45 1804.5,1759.45C1205.64,1759.45 719.448,2245.64 719.448,2844.5C719.448,3443.36 1205.64,3929.55 1804.5,3929.55C2261.69,3929.55 2653.22,3646.18 2812.88,3245.64L3220.57,3245.64Z" style="fill:white;"/>
        </g>
        <g transform="matrix(1.01183,0,0,0.872306,-98.6294,326.003)">
            <g transform="matrix(4.04045e-17,0.659855,-0.758176,4.64249e-17,2636.84,1585.14)">
                <g transform="matrix(2244.84,0,0,2244.84,2033.91,1953)">
                </g>
                <text x="462.524px" y="1953px" style="font-family:'Scandia-Medium', 'Scandia';font-weight:500;font-size:2244.84px;fill:white;">R</text>
            </g>
            <g transform="matrix(4.04045e-17,0.659855,-0.758176,4.64249e-17,3446.54,1585.14)">
                <path d="M1305.46,1563.67L1462.23,1563.67L1522.09,1472.6C1751.06,1396.28 1901.47,1187.51 1901.47,940.576C1901.47,630.788 1665.76,381.61 1331.28,381.61L639.867,381.61L639.867,1563.67L916.541,1563.67L931.696,1501.79L1171.89,1501.79L1305.46,1563.67ZM931.696,1250.36L931.696,633.033L1293.12,633.033C1486.17,633.033 1609.64,767.723 1609.64,940.576C1609.64,1113.43 1486.17,1250.36 1293.12,1250.36L931.696,1250.36Z" style="fill:white;fill-rule:nonzero;"/>
            </g>
        </g>
    </g>
</svg>
